<svg xmlns="http://www.w3.org/2000/svg" viewBox="0 0 64 64">
  <g transform="translate(32 32) scale(1.08) translate(-32 -32) rotate(40 32 32) translate(0 1)">
    <path d="M15 18 Q32 7 49 18 L37 60 Q32 66 27 60 Z" fill="#f2711c"/>
    <path d="M20 29 H44 M24 42 H40" stroke="#c4560f" stroke-width="3.5" stroke-linecap="round"/>
    <path d="M32 15 C30 9 24 4 16 4 C20 8 24 13 32 15 Z" fill="#3fbf5a"/>
    <path d="M32 15 C34 9 40 4 48 4 C44 8 40 13 32 15 Z" fill="#3fbf5a"/>
    <path d="M32 15 C32 10 33 5 32 0 C31 5 32 10 32 15 Z" fill="#3fbf5a"/>
  </g>
  <path d="M21 4 L25 17 L38 21 L25 25 L21 38 L17 25 L4 21 L17 17 Z" fill="#fff" stroke="#f2711c" stroke-width="2" stroke-linejoin="round"/>
</svg>
